<svg width="60" height="60" viewBox="0 0 60 60" fill="none" xmlns="http://www.w3.org/2000/svg">
<path d="M30 60C46.5685 60 60 46.5685 60 30C60 13.4315 46.5685 0 30 0C13.4315 0 0 13.4315 0 30C0 46.5685 13.4315 60 30 60ZM26.25 24.375C26.25 27.4816 24.571 30 22.5 30C20.4289 30 18.75 27.4816 18.75 24.375C18.75 21.2684 20.4289 18.75 22.5 18.75C24.571 18.75 26.25 21.2684 26.25 24.375ZM16.0679 46.623C15.1716 46.1045 14.8653 44.9575 15.3838 44.0611C18.2987 39.0221 23.7516 35.625 30.0001 35.625C36.2486 35.625 41.7014 39.0221 44.6163 44.0611C45.1349 44.9575 44.8286 46.1045 43.9322 46.623C43.0358 47.1415 41.8888 46.8352 41.3703 45.9389C39.0981 42.0109 34.8558 39.375 30.0001 39.375C25.1443 39.375 20.902 42.0109 18.6298 45.9389C18.1113 46.8352 16.9643 47.1415 16.0679 46.623ZM37.5 30C35.4289 30 33.75 27.4816 33.75 24.375C33.75 21.2684 35.4289 18.75 37.5 18.75C39.571 18.75 41.25 21.2684 41.25 24.375C41.25 27.4816 39.571 30 37.5 30Z" fill="#9E9E9E"/>
</svg>
