<svg width="223" height="68" viewBox="0 0 223 68" fill="none" xmlns="http://www.w3.org/2000/svg">
<path d="M69.6186 37L81.3928 10.5836H87.4308L99.2427 37H92.8273L83.1664 13.6781H85.5816L75.8831 37H69.6186ZM75.5057 31.3393L77.1284 26.6976H90.714L92.3744 31.3393H75.5057ZM101.568 37V16.6971H107.191V22.4333L106.399 20.7728C107.002 19.3388 107.971 18.257 109.304 17.5274C110.638 16.7726 112.261 16.3952 114.173 16.3952V21.8295C113.921 21.8043 113.695 21.7917 113.493 21.7917C113.292 21.7666 113.078 21.754 112.852 21.754C111.242 21.754 109.933 22.2194 108.927 23.1503C107.946 24.056 107.455 25.4774 107.455 27.4146V37H101.568ZM128.8 37V33.0375L128.422 32.1696V25.0749C128.422 23.817 128.032 22.8358 127.253 22.1314C126.498 21.4269 125.328 21.0747 123.743 21.0747C122.661 21.0747 121.592 21.2508 120.535 21.603C119.504 21.9301 118.623 22.3829 117.894 22.9616L115.78 18.8482C116.887 18.0683 118.221 17.4645 119.781 17.0368C121.34 16.6091 122.925 16.3952 124.535 16.3952C127.63 16.3952 130.033 17.1248 131.743 18.584C133.454 20.0432 134.31 22.32 134.31 25.4145V37H128.8ZM122.611 37.3019C121.026 37.3019 119.667 37.0377 118.535 36.5094C117.403 35.9559 116.535 35.2137 115.931 34.2829C115.327 33.352 115.026 32.3079 115.026 31.1507C115.026 29.9431 115.315 28.8864 115.894 27.9807C116.497 27.075 117.441 26.3706 118.724 25.8674C120.007 25.3391 121.68 25.0749 123.743 25.0749H129.139V28.509H124.385C123.001 28.509 122.045 28.7354 121.516 29.1883C121.013 29.6412 120.762 30.2072 120.762 30.8865C120.762 31.6412 121.051 32.2451 121.63 32.6979C122.233 33.1256 123.051 33.3394 124.083 33.3394C125.064 33.3394 125.944 33.113 126.724 32.6602C127.504 32.1822 128.07 31.4903 128.422 30.5846L129.328 33.3017C128.9 34.6099 128.121 35.6037 126.988 36.283C125.856 36.9623 124.397 37.3019 122.611 37.3019ZM151.978 16.3952C153.588 16.3952 155.022 16.7223 156.28 17.3764C157.563 18.0054 158.569 18.9865 159.299 20.3199C160.029 21.6282 160.393 23.3138 160.393 25.3768V37H154.506V26.2825C154.506 24.6472 154.141 23.4396 153.412 22.6597C152.707 21.8798 151.701 21.4898 150.393 21.4898C149.462 21.4898 148.619 21.6911 147.864 22.0936C147.135 22.471 146.556 23.0622 146.128 23.8673C145.726 24.6724 145.525 25.7039 145.525 26.9618V37H139.638V16.6971H145.261V22.32L144.204 20.6218C144.933 19.2633 145.978 18.2192 147.336 17.4896C148.695 16.76 150.242 16.3952 151.978 16.3952ZM174.032 37.3019C171.642 37.3019 169.78 36.6981 168.447 35.4905C167.113 34.2577 166.447 32.4337 166.447 30.0185V12.2063H172.334V29.9431C172.334 30.7984 172.56 31.4651 173.013 31.9432C173.466 32.396 174.082 32.6224 174.862 32.6224C175.793 32.6224 176.586 32.3708 177.24 31.8677L178.825 36.0188C178.221 36.4465 177.491 36.7736 176.636 37C175.806 37.2013 174.938 37.3019 174.032 37.3019ZM163.314 21.6785V17.15H177.391V21.6785H163.314ZM191.579 37.3019C189.264 37.3019 187.226 36.849 185.465 35.9433C183.729 35.0376 182.383 33.8049 181.427 32.2451C180.471 30.6601 179.993 28.8612 179.993 26.8486C179.993 24.8107 180.459 23.0119 181.39 21.4521C182.346 19.8671 183.641 18.6343 185.277 17.7538C186.912 16.8481 188.761 16.3952 190.824 16.3952C192.812 16.3952 194.598 16.8229 196.183 17.6783C197.793 18.5085 199.063 19.7161 199.994 21.3011C200.925 22.8609 201.391 24.7353 201.391 26.924C201.391 27.1505 201.378 27.4146 201.353 27.7165C201.328 27.9933 201.303 28.2574 201.277 28.509H184.786V25.0749H198.183L195.919 26.0938C195.919 25.0372 195.705 24.1189 195.277 23.339C194.849 22.559 194.258 21.9552 193.503 21.5276C192.749 21.0747 191.868 20.8483 190.862 20.8483C189.855 20.8483 188.962 21.0747 188.182 21.5276C187.428 21.9552 186.836 22.5716 186.409 23.3767C185.981 24.1566 185.767 25.0875 185.767 26.1693V27.075C185.767 28.182 186.006 29.1631 186.484 30.0185C186.987 30.8488 187.679 31.4903 188.56 31.9432C189.466 32.3708 190.522 32.5847 191.73 32.5847C192.812 32.5847 193.755 32.4212 194.56 32.0941C195.39 31.767 196.145 31.2765 196.824 30.6223L199.957 34.0187C199.026 35.0754 197.856 35.893 196.447 36.4717C195.038 37.0252 193.415 37.3019 191.579 37.3019ZM212.141 37.3019C210.405 37.3019 208.732 37.1006 207.121 36.6981C205.536 36.2704 204.279 35.7421 203.348 35.1131L205.31 30.8865C206.241 31.4651 207.335 31.9432 208.593 32.3205C209.876 32.6727 211.134 32.8489 212.367 32.8489C213.726 32.8489 214.682 32.6853 215.235 32.3583C215.814 32.0312 216.103 31.5784 216.103 30.9997C216.103 30.5217 215.877 30.1695 215.424 29.9431C214.996 29.6915 214.417 29.5028 213.688 29.377C212.958 29.2512 212.153 29.1254 211.273 28.9996C210.417 28.8738 209.549 28.7103 208.669 28.509C207.788 28.2826 206.983 27.9555 206.253 27.5278C205.524 27.1001 204.933 26.5215 204.48 25.7919C204.052 25.0623 203.838 24.1189 203.838 22.9616C203.838 21.6785 204.203 20.5464 204.933 19.5652C205.687 18.584 206.769 17.8167 208.178 17.2632C209.587 16.6845 211.273 16.3952 213.235 16.3952C214.619 16.3952 216.028 16.5462 217.462 16.8481C218.896 17.15 220.091 17.5903 221.047 18.1689L219.084 22.3578C218.103 21.7791 217.109 21.3892 216.103 21.1879C215.122 20.9615 214.166 20.8483 213.235 20.8483C211.927 20.8483 210.971 21.0244 210.367 21.3766C209.763 21.7288 209.461 22.1817 209.461 22.7352C209.461 23.2383 209.675 23.6157 210.103 23.8673C210.556 24.1189 211.147 24.3201 211.876 24.4711C212.606 24.622 213.398 24.7604 214.254 24.8862C215.134 24.9868 216.015 25.1504 216.895 25.3768C217.776 25.6032 218.569 25.9303 219.273 26.358C220.003 26.7605 220.594 27.3266 221.047 28.0562C221.499 28.7606 221.726 29.6915 221.726 30.8488C221.726 32.1067 221.349 33.2262 220.594 34.2074C219.839 35.1634 218.745 35.9182 217.311 36.4717C215.902 37.0252 214.178 37.3019 212.141 37.3019Z" fill="#FAFAFA"/>
<path d="M71.7056 52.5972C71.4603 52.5972 71.2528 52.5123 71.083 52.3425C70.9131 52.1727 70.8282 51.9651 70.8282 51.7198C70.8282 51.4745 70.9131 51.267 71.083 51.0972C71.2528 50.9273 71.4603 50.8424 71.7056 50.8424C71.9415 50.8424 72.1396 50.9273 72.3 51.0972C72.4698 51.267 72.5547 51.4745 72.5547 51.7198C72.5547 51.9651 72.4698 52.1727 72.3 52.3425C72.1396 52.5123 71.9415 52.5972 71.7056 52.5972ZM72.3283 53.8567V61.6118H71.0405V53.8567H72.3283ZM89.5097 53.7152C90.1135 53.7152 90.6513 53.8426 91.123 54.0973C91.5947 54.3426 91.9674 54.7153 92.241 55.2153C92.5146 55.7153 92.6514 56.3238 92.6514 57.0408V61.6118H91.3777V57.2248C91.3777 56.4512 91.1843 55.8615 90.7975 55.4559C90.4201 55.0407 89.906 54.8332 89.255 54.8332C88.5851 54.8332 88.0521 55.0502 87.6558 55.4842C87.2596 55.9087 87.0615 56.5267 87.0615 57.338V61.6118H85.7878V57.2248C85.7878 56.4512 85.5944 55.8615 85.2076 55.4559C84.8302 55.0407 84.3161 54.8332 83.6651 54.8332C82.9952 54.8332 82.4622 55.0502 82.0659 55.4842C81.6697 55.9087 81.4716 56.5267 81.4716 57.338V61.6118H80.1838V53.8567H81.4716V54.9747C81.7263 54.569 82.0659 54.2577 82.4905 54.0407C82.9245 53.8237 83.4009 53.7152 83.9198 53.7152C84.5708 53.7152 85.1463 53.8614 85.6463 54.1539C86.1463 54.4464 86.519 54.8756 86.7643 55.4417C86.9813 54.8945 87.3398 54.47 87.8398 54.1681C88.3398 53.8662 88.8965 53.7152 89.5097 53.7152ZM103.807 61.7392C103.08 61.7392 102.42 61.5741 101.825 61.2439C101.241 60.9137 100.778 60.4467 100.439 59.8429C100.108 59.2296 99.9433 58.522 99.9433 57.7201C99.9433 56.9276 100.113 56.2295 100.453 55.6257C100.802 55.0124 101.274 54.5454 101.868 54.2247C102.462 53.8945 103.127 53.7294 103.863 53.7294C104.599 53.7294 105.264 53.8945 105.859 54.2247C106.453 54.5454 106.92 55.0077 107.26 55.6115C107.609 56.2153 107.783 56.9182 107.783 57.7201C107.783 58.522 107.604 59.2296 107.246 59.8429C106.896 60.4467 106.42 60.9137 105.816 61.2439C105.212 61.5741 104.543 61.7392 103.807 61.7392ZM103.807 60.6071C104.269 60.6071 104.703 60.4986 105.109 60.2816C105.514 60.0646 105.84 59.7391 106.085 59.3051C106.34 58.8711 106.467 58.3428 106.467 57.7201C106.467 57.0974 106.345 56.5691 106.099 56.1351C105.854 55.7012 105.533 55.3804 105.137 55.1728C104.741 54.9558 104.311 54.8473 103.849 54.8473C103.377 54.8473 102.943 54.9558 102.547 55.1728C102.16 55.3804 101.849 55.7012 101.613 56.1351C101.377 56.5691 101.259 57.0974 101.259 57.7201C101.259 58.3522 101.373 58.8853 101.599 59.3193C101.835 59.7532 102.146 60.0787 102.533 60.2957C102.92 60.5033 103.344 60.6071 103.807 60.6071ZM105.25 51.5642L102.236 53.1774V52.2151L105.25 50.4462V51.5642ZM118.024 60.4231L120.43 53.8567H121.803L118.76 61.6118H117.26L114.217 53.8567H115.604L118.024 60.4231ZM135.806 57.4371C135.806 57.6824 135.792 57.9418 135.764 58.2154H129.565C129.613 58.9796 129.872 59.5787 130.344 60.0127C130.825 60.4372 131.405 60.6495 132.084 60.6495C132.641 60.6495 133.103 60.5221 133.471 60.2674C133.849 60.0032 134.113 59.6542 134.264 59.2202H135.651C135.443 59.9655 135.028 60.574 134.405 61.0458C133.783 61.508 133.009 61.7392 132.084 61.7392C131.349 61.7392 130.688 61.5741 130.103 61.2439C129.528 60.9137 129.075 60.4467 128.745 59.8429C128.414 59.2296 128.249 58.522 128.249 57.7201C128.249 56.9182 128.41 56.2153 128.731 55.6115C129.051 55.0077 129.499 54.5454 130.075 54.2247C130.66 53.8945 131.33 53.7294 132.084 53.7294C132.82 53.7294 133.471 53.8897 134.037 54.2105C134.603 54.5313 135.037 54.9747 135.339 55.5408C135.651 56.0974 135.806 56.7295 135.806 57.4371ZM134.476 57.1682C134.476 56.6776 134.368 56.2578 134.151 55.9087C133.934 55.5502 133.636 55.2813 133.259 55.1021C132.891 54.9134 132.481 54.819 132.028 54.819C131.377 54.819 130.82 55.0266 130.358 55.4417C129.905 55.8568 129.646 56.4323 129.58 57.1682H134.476ZM143.832 52.5972C143.587 52.5972 143.379 52.5123 143.209 52.3425C143.039 52.1727 142.955 51.9651 142.955 51.7198C142.955 51.4745 143.039 51.267 143.209 51.0972C143.379 50.9273 143.587 50.8424 143.832 50.8424C144.068 50.8424 144.266 50.9273 144.426 51.0972C144.596 51.267 144.681 51.4745 144.681 51.7198C144.681 51.9651 144.596 52.1727 144.426 52.3425C144.266 52.5123 144.068 52.5972 143.832 52.5972ZM144.455 53.8567V61.6118H143.167V53.8567H144.455ZM155.056 61.7392C154.461 61.7392 153.928 61.6401 153.456 61.442C152.985 61.2344 152.612 60.9514 152.338 60.5929C152.065 60.225 151.914 59.8051 151.886 59.3334H153.216C153.254 59.7202 153.433 60.0363 153.754 60.2816C154.084 60.5269 154.513 60.6495 155.041 60.6495C155.532 60.6495 155.919 60.541 156.202 60.324C156.485 60.107 156.626 59.8334 156.626 59.5032C156.626 59.1636 156.475 58.9136 156.173 58.7532C155.872 58.5834 155.405 58.4183 154.772 58.2579C154.197 58.1069 153.725 57.956 153.357 57.805C152.999 57.6446 152.687 57.4135 152.423 57.1116C152.169 56.8003 152.041 56.3946 152.041 55.8946C152.041 55.4983 152.159 55.1351 152.395 54.8049C152.631 54.4747 152.966 54.2152 153.4 54.0265C153.834 53.8284 154.329 53.7294 154.886 53.7294C155.744 53.7294 156.438 53.9463 156.966 54.3803C157.494 54.8143 157.777 55.4087 157.815 56.1634H156.527C156.499 55.7578 156.334 55.4323 156.032 55.187C155.74 54.9417 155.343 54.819 154.843 54.819C154.381 54.819 154.013 54.9181 153.739 55.1162C153.466 55.3143 153.329 55.5738 153.329 55.8946C153.329 56.1493 153.409 56.3616 153.57 56.5314C153.739 56.6918 153.947 56.8238 154.192 56.9276C154.447 57.022 154.796 57.1305 155.239 57.2531C155.796 57.4041 156.249 57.555 156.598 57.706C156.947 57.8475 157.244 58.0645 157.49 58.3569C157.744 58.6494 157.876 59.0315 157.886 59.5032C157.886 59.9278 157.768 60.3099 157.532 60.6495C157.296 60.9891 156.961 61.258 156.527 61.4561C156.103 61.6448 155.612 61.7392 155.056 61.7392Z" fill="#FAFAFA"/>
<path d="M21.7584 28.818H16.8078V33.5507H21.7584V28.818Z" fill="#FAFAFA"/>
<path d="M29.1843 28.818H24.2337V33.5507H29.1843V28.818Z" fill="#FAFAFA"/>
<path d="M24.2337 35.9171H29.1843V40.6498H24.2337V35.9171Z" fill="#FAFAFA"/>
<path d="M21.7584 35.9171H16.8078V40.6498H21.7584V35.9171Z" fill="#FAFAFA"/>
<path fill-rule="evenodd" clip-rule="evenodd" d="M0.718262 56.0311H5.66887V48.932H16.5717L23.255 56.0311H30.2048L27.3112 53.2649L6.71266 31.3851L22.996 17.7643L40.3232 32.2582L45.2738 36.1617V30.1106L22.996 11.4756L0.718262 30.1106V56.0311ZM5.66887 44.1993H12.1162L5.66887 37.351V44.1993Z" fill="#FAFAFA"/>
</svg>
