<svg width="34" height="34" viewBox="0 0 34 34" fill="none" xmlns="http://www.w3.org/2000/svg">
<g id="olx-logo 1">
<g id="g8">
<path id="path2" fill-rule="evenodd" clip-rule="evenodd" d="M8.39609 21.7825C6.81564 21.7825 5.7257 20.4583 5.7257 18.5C5.7257 16.5231 6.81564 15.1989 8.39609 15.1989C9.97655 15.1989 11.0667 16.5231 11.0667 18.4814C11.0667 20.4583 9.97655 21.7825 8.39609 21.7825ZM8.39609 24.2631C11.3209 24.2631 13.6463 21.8012 13.6463 18.4814C13.6463 15.1989 11.4481 12.7183 8.39609 12.7183C5.47129 12.7183 3.146 15.1802 3.146 18.5C3.146 21.8385 5.34409 24.2631 8.39609 24.2631Z" fill="#FAFAFA"/>
<path id="path4" fill-rule="evenodd" clip-rule="evenodd" d="M15.8082 19.8611H20.8222C21.1673 19.8611 21.3672 19.656 21.3672 19.3015V17.6789C21.3672 17.3246 21.1673 17.1195 20.8222 17.1195H17.4613V10.2187C17.4613 9.86428 17.2615 9.65918 16.9164 9.65918H15.2631C14.918 9.65918 14.7183 9.86428 14.7183 10.2187V18.7421C14.7183 19.4694 15.0997 19.8611 15.8082 19.8611Z" fill="#88DE60"/>
<path id="path6" fill-rule="evenodd" clip-rule="evenodd" d="M22.6206 24.0949L25.6363 20.5327L28.5611 24.0949C28.8154 24.412 29.1425 24.412 29.433 24.1509L30.6139 23.0879C30.9045 22.8267 30.9408 22.491 30.6684 22.1927L27.4166 18.4624L30.3777 15.0494C30.6321 14.751 30.6138 14.4338 30.3233 14.1541L29.2151 13.1284C28.9244 12.8486 28.5974 12.8672 28.343 13.1843L25.6363 16.4109L22.875 13.1843C22.6206 12.8859 22.2936 12.8486 22.003 13.1284L20.8584 14.1728C20.5678 14.4525 20.5496 14.751 20.8221 15.068L23.8377 18.4811L20.5496 22.23C20.277 22.5469 20.3134 22.864 20.6041 23.1252L21.7486 24.1509C22.0393 24.412 22.3662 24.3934 22.6206 24.0949Z" fill="#EA7D01"/>
</g>
</g>
</svg>
