<svg width="40" height="40" viewBox="0 0 40 40" fill="none" xmlns="http://www.w3.org/2000/svg">
<g id="whatsapp">
<path id="Vector" d="M34.0033 5.81611C30.2684 2.06225 25.2886 0 19.9857 0C9.06627 0 0.171062 8.89523 0.161558 19.8147C0.161558 23.312 1.07389 26.7142 2.80351 29.7268L0 40L10.5108 37.244C13.4093 38.8216 16.669 39.6579 19.9857 39.6579H19.9952C30.9146 39.6579 39.8099 30.7627 39.8194 19.8337C39.8099 14.5403 37.7476 9.56047 34.0033 5.81611ZM19.9857 36.3032C17.0206 36.3032 14.1221 35.5049 11.5942 34.0033L10.9955 33.6422L4.76122 35.2768L6.42432 29.1946L6.03468 28.5674C4.38108 25.9444 3.51627 22.9128 3.51627 19.8052C3.51627 10.7389 10.9099 3.34521 19.9952 3.34521C24.3953 3.34521 28.5293 5.06534 31.6464 8.17296C34.754 11.2901 36.4646 15.4241 36.4646 19.8242C36.4551 28.919 29.0615 36.3032 19.9857 36.3032ZM29.0235 23.9677C28.5293 23.7206 26.0964 22.5232 25.6402 22.3521C25.1841 22.1905 24.8515 22.105 24.5283 22.5992C24.1957 23.0934 23.2454 24.2148 22.9603 24.5379C22.6752 24.8705 22.3806 24.9085 21.8864 24.6614C21.3922 24.4144 19.7956 23.8917 17.9045 22.2001C16.4314 20.8886 15.4431 19.2635 15.1485 18.7693C14.8634 18.2751 15.12 18.009 15.367 17.7619C15.5856 17.5434 15.8612 17.1822 16.1083 16.8971C16.3554 16.612 16.4409 16.4029 16.6025 16.0703C16.764 15.7377 16.688 15.4526 16.5645 15.2055C16.4409 14.9584 15.4526 12.516 15.0344 11.5277C14.6353 10.5583 14.2266 10.6914 13.9225 10.6819C13.6374 10.6629 13.3048 10.6629 12.9722 10.6629C12.6396 10.6629 12.1074 10.7864 11.6512 11.2806C11.195 11.7748 9.92158 12.9722 9.92158 15.4146C9.92158 17.857 11.6987 20.2043 11.9458 20.5369C12.1929 20.8696 15.4336 25.8684 20.4039 28.0162C21.5823 28.5293 22.5041 28.8335 23.2264 29.0615C24.4143 29.4417 25.4882 29.3847 26.3435 29.2611C27.2938 29.1186 29.2706 28.0637 29.6887 26.9043C30.0974 25.7448 30.0974 24.7565 29.9738 24.5474C29.8503 24.3383 29.5176 24.2148 29.0235 23.9677Z" fill="#FAFAFA"/>
</g>
</svg>
